<svg xmlns="http://www.w3.org/2000/svg" xmlns:xlink="http://www.w3.org/1999/xlink" version="1.1" id="Layer_1" x="0px" y="0px" enable-background="new 0 0 1024 768" xml:space="preserve" viewBox="153.79 316.11 718.2 144.45">
<path fill="#000000" opacity="1.000000" stroke="none" d=" M215.012024,316.826294   C217.194397,315.505524 218.769318,316.227905 220.450394,317.204224   C238.871384,327.902588 257.282959,338.618347 275.791199,349.164154   C279.045868,351.018616 280.505402,353.109802 280.470276,357.019745   C280.283325,377.838593 280.308350,398.660645 280.460663,419.480103   C280.489380,423.408661 279.391144,425.837433 275.788757,427.866211   C257.513031,438.158508 239.367523,448.684326 221.266342,459.281921   C218.474670,460.916351 216.270920,461.018158 213.481567,459.395233   C195.354553,448.848389 177.177322,438.387024 158.957703,428.000885   C155.459229,426.006592 153.744705,423.629974 153.791916,419.298920   C154.017059,398.647430 153.962906,377.991516 153.815674,357.338562   C153.788544,353.533813 155.075089,351.289703 158.413162,349.394958   C177.234360,338.711975 195.933533,327.814056 215.012024,316.826294  M239.646072,336.921112   C233.581116,333.443390 227.418350,330.122253 221.492905,326.421204   C218.577164,324.599976 216.288452,324.562408 213.302200,326.318024   C197.228531,335.767639 181.063278,345.062836 164.862228,354.293030   C162.404190,355.693481 161.307068,357.298157 161.323059,360.198700   C161.426788,379.020966 161.412292,397.844299 161.326218,416.666779   C161.313217,419.508575 162.326431,421.289856 164.787628,422.696960   C181.113968,432.030914 197.416138,441.408478 213.643478,450.912994   C216.297043,452.467224 218.369156,452.406433 220.982025,450.881134   C236.654800,441.731842 252.373245,432.658844 268.166260,423.719025   C271.593811,421.778809 273.038116,419.440155 272.991791,415.380341   C272.786499,397.392639 272.805328,379.400208 272.987915,361.411957   C273.026825,357.577454 271.780518,355.299225 268.430176,353.452057   C258.955170,348.228302 249.644150,342.707031 239.646072,336.921112  z"/>
<path fill="#000000" opacity="1.000000" stroke="none" d=" M688.604614,383.198059   C687.312866,386.287262 684.803467,387.819794 682.461731,390.338989   C692.692810,398.032898 688.414185,410.047211 691.815796,420.118896   C687.656860,421.741425 683.833069,421.069611 680.090210,420.948608   C677.625305,420.868896 676.906433,418.936951 676.611511,416.786530   C676.002441,412.345825 675.425171,407.898010 674.676208,403.480011   C673.868774,398.717377 671.080139,396.428070 666.090698,396.193481   C651.345154,395.500244 651.350159,395.393799 651.349365,410.071198   C651.349304,411.403442 651.352722,412.735718 651.349609,414.067963   C651.333252,421.041565 651.332703,421.041595 644.537598,421.092621   C636.650330,421.151855 636.655151,421.151825 636.653137,413.088104   C636.648865,396.101837 636.756287,379.114166 636.548950,362.130341   C636.497437,357.910400 637.729919,355.979309 642.101990,356.065186   C652.581299,356.271027 663.103149,355.238831 673.537476,356.526367   C687.384460,358.235016 693.972473,369.859528 688.604614,383.198059  M658.619507,384.862030   C661.606201,384.837952 664.601257,384.946716 667.577820,384.760773   C672.990479,384.422638 675.546753,381.744781 675.622803,376.608429   C675.695251,371.714874 672.952454,368.832916 667.622070,368.366730   C665.643616,368.193726 663.642273,368.244354 661.651672,368.255585   C649.534180,368.323914 651.809570,366.880798 651.256287,378.516144   C651.016174,383.566711 652.607605,385.702301 658.619507,384.862030  z"/>
<path fill="#000000" opacity="1.000000" stroke="none" d=" M768.413696,421.099121   C765.845764,421.080048 764.557617,419.940765 763.942810,417.996582   C759.527222,404.034698 755.121887,390.069611 750.748352,376.094513   C750.616333,375.672607 750.868469,375.130463 750.976501,374.411102   C754.651672,373.159241 758.462524,373.741760 762.209167,373.922028   C764.486877,374.031677 764.874084,376.044495 765.367310,377.860901   C767.544312,385.878723 769.773193,393.882507 772.404724,403.418640   C774.675537,394.448822 776.867188,386.961182 778.390259,379.339935   C779.314087,374.717407 781.648071,373.598114 785.993469,373.628448   C790.454041,373.659668 793.540466,374.159058 794.574402,379.454529   C796.061096,387.068329 798.304932,394.534271 800.545654,403.318176   C802.959839,394.554565 805.029297,387.035126 807.103088,379.516907   C808.488281,374.495026 816.758179,371.366760 821.022583,374.225403   C822.509766,375.222321 822.039307,376.501099 821.639526,377.776184   C817.456970,391.116028 813.247620,404.447540 809.093933,417.796356   C808.327637,420.259033 806.752014,421.245850 804.251587,421.135681   C802.422913,421.055176 800.575684,421.009460 798.756958,421.173126   C795.537903,421.462830 793.886902,420.077454 793.096802,416.955811   C791.058960,408.903870 788.815247,400.904053 786.275085,391.478424   C784.342529,399.145081 782.806335,405.522736 781.120361,411.860535   C778.644775,421.166656 778.599182,421.154541 768.413696,421.099121  z"/>
<path fill="#000000" opacity="1.000000" stroke="none" d=" M386.547119,382.389954   C384.524658,382.875336 382.659607,383.331512 381.966980,384.902618   C379.397125,390.731598 374.328094,388.998779 369.902100,389.063263   C367.276459,389.101501 366.469360,387.551117 367.108765,385.052002   C368.580566,379.299408 372.610229,375.933380 377.903656,374.213379   C385.384430,371.782684 393.040649,371.965393 400.515411,374.360413   C406.404388,376.247253 409.070679,380.171112 409.339996,386.284912   C409.808105,396.910980 408.325989,407.595337 410.307129,418.177734   C410.537720,419.409424 410.262146,420.389069 408.854828,420.937531   C405.684235,422.173340 398.373352,420.666138 395.851074,417.996277   C389.524384,421.594513 382.836914,423.504639 375.451385,421.337585   C369.026733,419.452515 365.138489,414.739227 364.997803,408.337311   C364.854858,401.830536 368.718964,396.447052 375.326019,394.727875   C379.979645,393.516937 384.797455,392.943817 389.532379,392.035980   C392.479279,391.470947 395.948120,391.206482 395.554352,386.946716   C395.196808,383.078827 392.054321,382.544617 388.933594,382.297485   C388.273346,382.245209 387.602875,382.322327 386.547119,382.389954  M380.178589,403.800812   C378.643951,406.551300 378.387909,409.379730 381.187622,411.273590   C384.672150,413.630676 388.578613,413.218475 391.936554,410.972717   C395.863922,408.346222 396.368622,404.400940 395.142059,399.881470   C390.021454,400.306061 385.104187,400.591827 380.178589,403.800812  z"/>
<path fill="#000000" opacity="1.000000" stroke="none" d=" M858.265015,420.696289   C842.977173,424.264343 831.795105,419.869232 826.903564,408.141937   C822.709534,398.086945 823.991272,388.329163 831.233032,380.155304   C837.939209,372.586029 846.880554,370.955261 856.362488,373.823730   C867.735962,377.264404 871.632080,387.721954 871.986572,397.506775   C872.103638,400.736176 869.830322,401.181091 867.259888,401.177155   C859.940857,401.165924 852.621887,401.197113 845.302856,401.209808   C843.338318,401.213226 841.373779,401.210327 839.180420,401.210327   C838.821472,405.580933 840.267456,408.431519 843.658936,410.239471   C848.110413,412.612457 852.808350,412.423706 856.140564,408.886353   C860.393066,404.372253 865.094788,405.950531 870.675781,405.872803   C868.991394,413.345459 865.020569,417.903290 858.265015,420.696289  M849.411255,391.709900   C851.964844,391.493744 854.641174,392.229065 857.095459,391.043549   C855.562317,383.760620 848.292847,380.859558 842.654968,385.058167   C840.922913,386.348053 838.933044,387.974091 839.661316,390.335846   C840.354248,392.583008 842.798279,391.496796 844.496887,391.684937   C845.809021,391.830231 847.150391,391.711456 849.411255,391.709900  z"/>
<path fill="#000000" opacity="1.000000" stroke="none" d=" M568.199341,390.237610   C570.007812,401.113556 570.007812,401.119019 559.428406,401.158081   C552.937744,401.182068 546.446838,401.222229 539.956360,401.185211   C536.194946,401.163757 535.782166,403.036896 536.985229,406.023468   C539.407837,412.037170 548.203552,414.008362 553.381775,408.952759   C557.739319,404.698364 562.231750,405.619049 567.102539,406.179047   C566.740173,414.919312 558.664673,421.948853 547.882996,422.120941   C534.528931,422.334106 524.348572,416.215363 522.129333,399.937042   C520.509888,388.058014 528.219910,376.499634 539.965576,373.476990   C550.472961,370.772980 563.782166,374.413025 568.199341,390.237610  M542.403137,383.573914   C539.287170,385.037018 536.904968,387.055328 536.547791,391.422913   C542.670837,391.891388 548.447754,391.940338 554.312988,391.379089   C553.311279,384.862152 550.775513,383.180176 542.403137,383.573914  z"/>
<path fill="#000000" opacity="1.000000" stroke="none" d=" M337.711182,383.011841   C337.722565,369.325928 337.722168,369.208221 324.838623,369.251556   C320.601410,369.265808 318.360382,368.406677 318.603912,363.454224   C318.944244,356.532928 318.891754,356.087799 324.806580,356.053955   C338.629608,355.974884 352.456970,356.203766 366.275208,355.933075   C372.003632,355.820862 372.097717,359.006897 372.240021,363.256165   C372.396454,367.927246 370.559448,369.262299 366.077698,369.247772   C352.932770,369.205261 352.943481,369.361359 352.968628,382.437805   C352.988525,392.763733 352.998596,403.089752 352.971252,413.415619   C352.951294,420.948730 352.817657,421.055603 345.562408,421.100403   C337.747955,421.148682 337.738220,421.148712 337.727203,413.487793   C337.712860,403.494843 337.715912,393.501862 337.711182,383.011841  z"/>
<path fill="#000000" opacity="1.000000" stroke="none" d=" M462.939026,400.063965   C462.930756,405.720306 462.865265,410.886841 462.933929,416.051544   C462.979950,419.513977 461.703033,421.448669 457.944031,421.142792   C456.453979,421.021545 454.942566,421.052246 453.447083,421.131195   C450.061127,421.309967 448.671692,419.817780 448.720093,416.378876   C448.834991,408.215729 448.836243,400.046265 448.631165,391.885681   C448.551056,388.697876 447.790405,385.547943 444.256134,384.108459   C440.959595,382.765839 437.963959,383.622528 435.367340,385.638672   C432.798523,387.633179 432.292664,390.692749 432.265015,393.759125   C432.201965,400.757446 432.231415,407.756531 432.199371,414.755188   C432.171722,420.791687 431.821259,421.088226 424.999146,421.117035   C418.626678,421.143951 418.060333,420.703827 418.032623,414.979462   C417.977753,403.648071 417.926605,392.315430 418.052734,380.985321   C418.081604,378.390625 416.978546,374.996155 420.909363,373.904053   C425.935364,372.507690 430.212524,373.980591 432.378265,378.009827   C436.827637,373.479736 442.332916,372.180023 448.413788,372.749725   C456.353333,373.493530 461.468567,378.480103 462.277588,386.611786   C462.705414,390.911682 462.731476,395.251556 462.939026,400.063965  z"/>
<path fill="#000000" opacity="1.000000" stroke="none" d=" M515.460205,403.362915   C515.433167,408.161407 515.315430,412.493317 515.430359,416.819061   C515.510315,419.826935 514.146301,421.083893 511.269501,421.041779   C509.771576,421.019867 508.267456,420.989319 506.775299,421.093872   C503.197998,421.344574 501.636536,419.852509 501.705078,416.154602   C501.847015,408.497864 501.778534,400.835754 501.701080,393.176849   C501.636047,386.741577 499.008362,383.455475 494.133270,383.470001   C489.021759,383.485229 485.550903,386.975555 485.332245,392.983154   C485.059845,400.467407 484.902924,407.978394 485.226959,415.454834   C485.491638,421.560272 481.617676,420.992554 477.687622,421.136719   C473.715240,421.282410 470.909180,420.791443 470.998901,415.657593   C471.208374,403.672607 471.000916,391.680786 471.056213,379.692200   C471.068054,377.130219 470.603943,373.685272 474.634674,373.912811   C478.383667,374.124481 483.763794,371.241882 484.780762,378.520660   C490.414001,373.140839 496.863831,371.432709 504.176941,373.393555   C511.095917,375.248688 514.519897,379.317596 515.283142,386.450378   C515.868835,391.924408 516.122253,397.404572 515.460205,403.362915  z"/>
<path fill="#000000" opacity="1.000000" stroke="none" d=" M742.344849,381.781006   C748.433228,391.719177 749.170532,401.663422 743.279480,411.397491   C737.526855,420.902832 725.492554,424.581909 714.235596,420.977783   C704.169434,417.754913 697.776123,407.894806 698.328735,396.445129   C698.866760,385.298096 704.540588,376.951202 713.581543,374.006378   C724.395447,370.484039 735.795532,373.462769 742.344849,381.781006  M731.878296,405.171204   C733.590149,400.506378 733.697388,395.784760 732.429810,390.998413   C731.174988,386.260101 728.193726,383.605896 723.245300,383.314636   C718.260315,383.021210 715.061035,385.489258 713.225403,389.944519   C711.643494,393.783875 711.996887,397.835602 712.449890,401.763855   C713.002136,406.552094 715.322632,410.356659 720.479797,411.357544   C725.459167,412.323944 729.279114,410.522736 731.878296,405.171204  z"/>
<path fill="#000000" opacity="1.000000" stroke="none" d=" M587.838623,374.932251   C588.297241,376.692474 588.530579,378.110382 588.855652,380.085205   C592.470032,376.395142 596.062683,373.579346 600.892578,372.870483   C604.607361,372.325287 606.740234,373.334106 606.358948,377.532227   C606.224243,379.016052 606.284363,380.523651 606.339478,382.017303   C606.432251,384.532745 605.370422,385.689301 602.762878,385.478058   C592.918030,384.680450 589.387817,390.992371 589.338257,399.341278   C589.304688,404.992065 589.192993,410.646423 589.349121,416.292786   C589.441956,419.652161 588.249878,421.296967 584.766174,421.079834   C582.945190,420.966339 581.111633,421.059052 579.283875,421.047241   C576.824829,421.031372 575.670532,419.779266 575.673645,417.327911   C575.690247,404.031952 575.701294,390.735992 575.674805,377.440094   C575.669861,374.929932 576.835327,373.726257 579.302063,373.828796   C582.083252,373.944397 584.954102,373.136414 587.838623,374.932251  z"/>
<path fill="#000000" opacity="1.000000" stroke="none" d=" M191.084229,391.890289   C194.083908,393.400452 196.758728,394.746368 199.429825,396.099640   C206.378296,399.620026 207.316757,401.951935 204.941467,410.366425   C200.535782,409.965118 197.183456,407.031372 193.438339,405.195312   C187.771240,402.416992 182.387848,399.065735 176.781357,396.155487   C173.949280,394.685425 172.596588,392.776031 172.689484,389.476105   C172.782974,386.154907 173.021835,383.396820 176.511139,381.596130   C185.079300,377.174377 193.485947,372.440033 201.971527,367.857269   C202.821945,367.398010 203.706665,366.821564 204.774918,367.258484   C207.617386,374.600800 206.440292,378.010681 199.881470,381.264465   C195.562820,383.406921 191.214630,385.489777 186.889038,387.618317   C186.450195,387.834229 186.075897,388.181305 184.976227,388.959900   C187.142151,389.997437 188.949905,390.863403 191.084229,391.890289  z"/>
<path fill="#000000" opacity="1.000000" stroke="none" d=" M254.855774,380.056519   C261.753235,383.529266 262.342896,384.744568 261.384644,391.950287   C261.161377,393.629456 260.439911,394.706879 259.022797,395.472687   C249.950470,400.375122 240.887329,405.294586 231.803955,410.176422   C231.253891,410.472046 230.556320,410.493164 229.951523,410.636292   C226.920670,403.565216 228.179642,399.779358 234.545502,396.621521   C239.394028,394.216370 244.262009,391.850494 249.641617,389.211975   C244.930939,385.547607 239.964783,384.031708 235.479248,381.647369   C227.893738,377.615204 227.175629,376.030731 229.644440,366.298218   C238.048447,370.888153 246.289108,375.388885 254.855774,380.056519  z"/>
<path fill="#000000" opacity="1.000000" stroke="none" d=" M217.153046,409.924438   C216.801346,411.641815 216.406296,412.925598 216.259613,414.237122   C215.702042,419.223053 212.963440,420.214355 208.243378,418.478363   C208.507645,411.202942 210.544403,404.212006 211.820221,397.123199   C213.876709,385.696960 216.386017,374.349060 218.274155,362.897156   C219.101151,357.881256 221.479767,356.884705 226.579727,358.464630   C224.342316,375.599854 219.992538,392.419495 217.153046,409.924438  z"/>
</svg>